<?xml version="1.0" encoding="iso-8859-1"?>

<svg version="1.1" id="Layer_1" xmlns="http://www.w3.org/2000/svg" xmlns:xlink="http://www.w3.org/1999/xlink" x="0px" y="0px"
	 viewBox="0 0 512.001 512.001" style="enable-background:new 0 0 512.001 512.001;" xml:space="preserve">
<style>
.content-line-delay-1 {
    stroke-dasharray: 320;
    stroke-dashoffset: -320;
    animation: dash .5s ease-out forwards;
}

.content-line-delay-2 {
    stroke-dasharray: 320;
    stroke-dashoffset: -320;
    animation: dash .5s ease-out .25s forwards;
}

.content-line-delay-3 {
    stroke-dasharray: 320;
    stroke-dashoffset: -320;
    animation: dash .5s ease-out .5s forwards;
}

.content-line-delay-4 {
    stroke-dasharray: 320;
    stroke-dashoffset: -320;
    animation: dash .5s ease-out .75s forwards;
}

.content-line-delay-5 {
    stroke-dasharray: 320;
    stroke-dashoffset: -320;
    animation: dash .5s ease-out 1s forwards;
}

.sky {
	transition: fill .5s;
	fill: #6794e0;

	animation: day .5s ease-in .5s forwards;
}

.light {
	opacity: 0;
	transform: translateY(30px);
	animation: fadeInRise .5s ease-out .5s forwards;
}

.light-effect {
	opacity: 0;
	animation: fadeInFall .5s ease-out .6s forwards;
}

@keyframes day {
    from {
        fill: #6794e0;
    }
    to {
        fill: #ABE1FA;
    }
}


@keyframes dash {
    from {
        stroke-dashoffset: -320;
    }
    to {
        stroke-dashoffset: 0;
    }
}

@keyframes fadeInFall {
	from {
		opacity: 0;
		transform: translateY(-5px);
	}
	to {
		opacity: 1;
		transform: translateY(0);
	}
}

@keyframes fadeInRise {
	from {
		opacity: 0;
		transform: translateY(30px);
	}
	to {
		opacity: 1;
		transform: translateY(0);
	}
}
</style>
<path style="fill:#CAD1D8;" d="M24,16h464c13.254,0,24,10.745,24,24v432c0,13.254-10.745,24-24,24H24C10.745,496,0,485.255,0,472V40
	C0,26.745,10.745,16,24,16z"/>
<g>
	<circle style="fill:#9BA7AF;" cx="24.002" cy="47.995" r="7.998"/>
	<circle style="fill:#9BA7AF;" cx="56.002" cy="47.995" r="7.998"/>
	<circle style="fill:#9BA7AF;" cx="88.002" cy="47.995" r="7.998"/>
</g>
<path style="fill:#FFFFFF;" d="M24,80h464c4.418,0,8,3.582,8,8v384c0,4.418-3.582,8-8,8H24c-4.418,0-8-3.582-8-8V88
	C16,83.582,19.582,80,24,80z"/>

<path stroke="#E2E5E7" stroke-width="16px" d="M 480 48 H 127" stroke-linecap="round" />

<path class="sky" d="M48,112h416c4.418,0,8,3.582,8,8v80c0,4.418-3.582,8-8,8H48c-4.418,0-8-3.582-8-8v-80
	C40,115.582,43.582,112,48,112z"/>
<circle style="fill:#F19F35;" cx="88.002" cy="143.995" r="15.995" class="light" />
<g>
	<path style="fill:#595A66;" d="M472,200.001v-22.32l-36.24-36.24c-2.809-2.797-7.351-2.797-10.16,0l-66.56,66.56h104.96
		C468.418,208,472,204.418,472,200.001z"/>
	<path style="fill:#595A66;" d="M353.6,156.8L304,208h105.2l-44.8-51.2c-2.63-2.983-7.18-3.267-10.163-0.638
		C354.012,156.361,353.799,156.575,353.6,156.8z"/>
</g>
<path style="fill:#35363E;" class="light-effect" d="M403.52,185.12c-4.304-4.906-11.392-6.257-17.2-3.28l22.88,26.16h14.32L403.52,185.12z"/>
<path style="fill:#595A66;" d="M298.08,156.8L248.481,208h105.2l-44.8-51.2c-2.63-2.983-7.18-3.267-10.163-0.638
	C298.492,156.361,298.279,156.575,298.08,156.8z"/>
<path style="fill:#35363E;" class="light-effect" d="M348,185.12c-4.304-4.906-11.392-6.257-17.2-3.28l22.88,26.16h14.32L348,185.12z"/>
<path style="fill:#6F707E;" class="light-effect" d="M430.795,149.816L430.795,149.816c1.562,1.562,1.562,4.095,0,5.657l-11.314,11.314
	c-1.562,1.562-4.095,1.562-5.657,0l0,0c-1.562-1.562-1.562-4.095,0-5.657l11.314-11.314
	C426.7,148.254,429.233,148.254,430.795,149.816z"/>
<path style="fill:#35363E;" class="light-effect" d="M472,177.68l-5.52-5.52c-1.988-1.988-5.211-1.988-7.2,0s-1.988,5.211,0,7.2l0,0l4.16,4.16
	c4.011,4.041,6.952,9.018,8.56,14.48v-20.32H472z"/>
<g>
	<path style="fill:#595A66;" d="M320,208l-59.28-66.56c-2.809-2.797-7.351-2.797-10.16,0L184,208H320z"/>
	<path style="fill:#595A66;" d="M185.6,156.8L136,208h105.2l-44.8-51.2c-2.63-2.983-7.18-3.267-10.163-0.638
		C186.012,156.361,185.799,156.575,185.6,156.8z"/>
</g>
<g>
	<path style="fill:#35363E;" class="light-effect" d="M235.52,185.12c-4.304-4.906-11.392-6.257-17.2-3.28l22.88,26.16h14.32L235.52,185.12z"/>
	<path style="fill:#35363E;" class="light-effect" d="M302.96,172.88c-4.304-4.906-11.392-6.257-17.2-3.28l34.241,38.4h14.32L302.96,172.88z"/>
</g>
<g>
	<path style="fill:#6F707E;" class="light-effect" d="M258.16,149.821L258.16,149.821c1.562,1.562,1.562,4.095,0,5.657l-11.314,11.314
		c-1.562,1.562-4.095,1.562-5.657,0l0,0c-1.562-1.562-1.562-4.095,0-5.657l11.314-11.314
		C254.065,148.259,256.598,148.259,258.16,149.821z"/>
	<path style="fill:#6F707E;" class="light-effect" d="M190.816,165.824L190.816,165.824c1.562,1.562,1.562,4.095,0,5.657l-11.314,11.314
		c-1.562,1.562-4.095,1.562-5.657,0l0,0c-1.562-1.562-1.562-4.095,0-5.657l11.314-11.314
		C186.721,164.262,189.253,164.262,190.816,165.824z"/>
</g>
<g>
	<path stroke="#595A66" class="content-line-delay-1" stroke-width="16px" d="M 140 247 H 47" stroke-linecap="round" />
	<path stroke="#CAD1D8" class="content-line-delay-2" stroke-width="16px" d="M 220 280 H 47" stroke-linecap="round" />
	<path stroke="#CAD1D8" class="content-line-delay-3" stroke-width="16px" d="M 165 312 H 47" stroke-linecap="round" />
	<path stroke="#CAD1D8" class="content-line-delay-4" stroke-width="16px" d="M 185 344 H 47" stroke-linecap="round" />
	<path stroke="#CAD1D8" class="content-line-delay-5" stroke-width="16px" d="M 165 376 H 47" stroke-linecap="round" />

	<path stroke="#595A66" class="content-line-delay-1" stroke-width="16px" d="M 390 247 H 287" stroke-linecap="round" />
	<path stroke="#CAD1D8" class="content-line-delay-2" stroke-width="16px" d="M 450 280 H 287" stroke-linecap="round" />
	<path stroke="#CAD1D8" class="content-line-delay-3" stroke-width="16px" d="M 395 312 H 287" stroke-linecap="round" />
	<path stroke="#CAD1D8" class="content-line-delay-4" stroke-width="16px" d="M 415 344 H 287" stroke-linecap="round" />
	<path stroke="#CAD1D8" class="content-line-delay-5" stroke-width="16px" d="M 395 376 H 287" stroke-linecap="round" />
</g>
<path style="fill:#E2E5E7;" d="M56,416h48c8.837,0,16,7.163,16,16l0,0c0,8.837-7.163,16-16,16H56c-8.837,0-16-7.163-16-16l0,0
	C40,423.163,47.164,416,56,416z"/>
<path style="fill:#3CB54A;" d="M56,408h48c8.837,0,16,7.163,16,16l0,0c0,8.837-7.163,16-16,16H56c-8.837,0-16-7.163-16-16l0,0
	C40,415.164,47.164,408,56,408z"/>
<circle style="fill:#0E9347;" cx="79.995" cy="423.998" r="7.998"/>
<path style="fill:#E2E5E7;" d="M296,416h48c8.837,0,16,7.163,16,16l0,0c0,8.837-7.163,16-16,16h-48c-8.837,0-16-7.163-16-16l0,0
	C280,423.163,287.164,416,296,416z"/>
<path style="fill:#3CB54A;" d="M296,408h48c8.837,0,16,7.163,16,16l0,0c0,8.837-7.163,16-16,16h-48c-8.837,0-16-7.163-16-16l0,0
	C280,415.164,287.164,408,296,408z"/>
<circle style="fill:#0E9347;" cx="320" cy="423.998" r="7.998"/>
</svg>
